<svg width="16" height="16" viewBox="0 0 16 16" fill="none" xmlns="http://www.w3.org/2000/svg">
<circle cx="8" cy="8" r="7.5" stroke="#EEC369"/>
<path d="M11 9.62076C11 10.3129 10.7707 10.8602 10.312 11.2627C9.85329 11.6653 9.20911 11.8877 8.37943 11.9301V13H7.65093V11.9195C6.8145 11.8559 6.16357 11.5982 5.69815 11.1462C5.23946 10.6871 5.00675 10.0657 5 9.28178H6.3457C6.36594 10.1575 6.80101 10.6483 7.65093 10.7542V8.50847L7.49916 8.4767C5.95447 8.17302 5.18212 7.41031 5.18212 6.18856C5.18212 5.56709 5.39798 5.06568 5.82968 4.68432C6.26813 4.30297 6.87521 4.09463 7.65093 4.05932V3H8.37943V4.08051C9.16189 4.16525 9.75211 4.41243 10.1501 4.82203C10.5481 5.23164 10.7605 5.78249 10.7875 6.47458H9.46206C9.42159 5.77542 9.06071 5.36582 8.37943 5.24576V7.34322L8.61214 7.38559C9.45531 7.56215 10.0624 7.82698 10.4334 8.18009C10.8111 8.52613 11 9.00636 11 9.62076ZM6.57841 6.14619C6.57841 6.42161 6.65599 6.63701 6.81113 6.79237C6.97302 6.94068 7.25295 7.0678 7.65093 7.17373V5.22458C6.93592 5.28107 6.57841 5.58828 6.57841 6.14619ZM8.37943 8.66737V10.7754C9.18212 10.7119 9.58347 10.3517 9.58347 9.69492C9.58347 9.42655 9.49241 9.21822 9.31029 9.06992C9.13491 8.91455 8.82462 8.78037 8.37943 8.66737Z" fill="#EEC369"/>
</svg>
