<svg width="32" height="32" viewBox="0 0 32 32" fill="none" xmlns="http://www.w3.org/2000/svg">
<path fill-rule="evenodd" clip-rule="evenodd" d="M16 32C24.8365 32 32 24.8365 32 16C32 7.16345 24.8365 0 16 0C7.16344 0 0 7.16345 0 16C0 24.8365 7.16344 32 16 32ZM23.1745 12.933C23.6898 12.2844 23.5817 11.3408 22.9331 10.8255C22.2844 10.3102 21.3408 10.4183 20.8255 11.067L13.8967 19.7886L10.029 16.1419C9.42627 15.5736 8.47693 15.6016 7.90862 16.2043C7.3403 16.8071 7.36823 17.7564 7.97098 18.3247L13.0265 23.0914C13.332 23.3794 13.7443 23.5262 14.1631 23.4962C14.5818 23.4661 14.9689 23.2618 15.23 22.933L23.1745 12.933Z" fill="white"/>
</svg>
